<svg xmlns="http://www.w3.org/2000/svg" xmlns:xlink="http://www.w3.org/1999/xlink" width="500" zoomAndPan="magnify" viewBox="0 0 375 374.999991" height="500" preserveAspectRatio="xMidYMid meet" version="1.0"><defs><clipPath id="622c626272"><path d="M 37.5 9.195312 L 337.5 9.195312 L 337.5 365.445312 L 37.5 365.445312 Z M 37.5 9.195312 " clip-rule="nonzero"/></clipPath></defs><g clip-path="url(#622c626272)"><path fill="#040606" d="M 303.398438 161.757812 L 303.398438 142.097656 C 303.398438 142.097656 211.828125 142.097656 188.296875 186.84375 Z M 71.171875 161.757812 L 71.171875 142.097656 C 71.171875 142.097656 162.773438 142.097656 186.273438 186.84375 Z M 234.285156 75.042969 C 234.285156 101.015625 213.25 122.03125 187.285156 122.03125 C 161.320312 122.03125 140.285156 100.980469 140.285156 75.042969 Z M 187.285156 9.597656 C 223.484375 9.597656 252.828125 38.910156 252.828125 75.042969 C 252.828125 111.207031 223.484375 140.523438 187.285156 140.523438 C 151.117188 140.523438 121.773438 111.207031 121.773438 75.042969 C 121.773438 38.910156 151.117188 9.597656 187.285156 9.597656 Z M 58.949219 232.160156 C 70.761719 232.160156 80.363281 241.722656 80.363281 253.585938 C 80.363281 265.386719 70.761719 274.980469 58.949219 274.980469 C 47.101562 274.980469 37.5 265.386719 37.5 253.585938 C 37.5 241.722656 47.101562 232.160156 58.949219 232.160156 Z M 315.65625 232.160156 C 327.5 232.160156 337.101562 241.722656 337.101562 253.585938 C 337.101562 265.386719 327.5 274.980469 315.65625 274.980469 C 303.808594 274.980469 294.207031 265.386719 294.207031 253.585938 C 294.207031 241.722656 303.808594 232.160156 315.65625 232.160156 Z M 187.316406 199.027344 L 323.742188 169.300781 L 323.742188 220.832031 C 321.152344 220.199219 318.433594 219.851562 315.65625 219.851562 C 297.019531 219.851562 281.917969 234.96875 281.917969 253.585938 C 281.917969 272.203125 297.019531 287.289062 315.65625 287.289062 C 318.433594 287.289062 321.152344 286.941406 323.742188 286.308594 L 323.742188 336.765625 L 187.316406 365.042969 L 50.859375 336.765625 L 50.859375 286.308594 C 53.453125 286.941406 56.136719 287.289062 58.949219 287.289062 C 77.582031 287.289062 92.683594 272.203125 92.683594 253.585938 C 92.683594 234.96875 77.582031 219.851562 58.949219 219.851562 C 56.136719 219.851562 53.453125 220.199219 50.859375 220.832031 L 50.859375 169.300781 L 187.316406 199.027344 " fill-opacity="1" fill-rule="nonzero"/></g></svg>